<svg data-v-423bf9ae="" xmlns="http://www.w3.org/2000/svg" viewBox="0 0 559 90" class="iconLeft" width="100" height="100" preserveAspectRatio="xMidYMid meet"><!----><!----><!----><g data-v-423bf9ae="" id="52013451-6c75-4a38-a099-adf217d5ca98" transform="matrix(1.0180994420703757,0,0,1.0180994420703757,-6.057684689584647,-6.114026471234588)" stroke="none" fill="blue"><path d="M62 94.7H38.3c-1.9 0-3.5-1.6-3.5-3.5l-.2-25.3H9.5c-1.9 0-3.5-1.6-3.5-3.5V38.6c0-1.9 1.6-3.5 3.5-3.5h25l.3-25.3c0-1.9 1.6-3.5 3.5-3.5H62c1.9 0 3.5 1.6 3.5 3.5S64 13.3 62 13.3H41.7l-.3 25.3c0 1.9-1.6 3.5-3.5 3.5H13v16.8h25.1c1.9 0 3.5 1.6 3.5 3.5l.2 25.3h16.8l.2-25.3c0-1.9 1.6-3.5 3.5-3.5h25.1V42.1H62.3c-1.9 0-3.5-1.5-3.5-3.5l-.2-14.4c0-1.9 1.5-3.5 3.5-3.5 1.9 0 3.5 1.5 3.5 3.5l.1 11h25.1c1.9 0 3.5 1.6 3.5 3.5v23.8c0 1.9-1.6 3.5-3.5 3.5H65.7l-.2 25.3c0 1.8-1.5 3.4-3.5 3.4z"></path></g><!----></svg>
