<svg data-v-423bf9ae="" xmlns="http://www.w3.org/2000/svg" viewBox="0 0 559 90" class="iconLeft"><!----><!----><!----><g data-v-423bf9ae="" id="9e359ad3-80f6-438c-b273-8b56e8796068" fill="white" transform="matrix(5.639098067841383,0,0,5.639098067841383,108.93951862563131,14.436091712181973)"><path d="M5.65 3.29L6.40 3.28Q6.66 4.24 6.84 4.89L6.84 4.89Q7.08 5.72 7.33 6.51L7.33 6.51L8.33 9.75L9.98 3.77L9.29 3.62L9.29 3.28L10.38 3.31L11.47 3.28L11.47 3.62L10.96 3.75L9.71 7.18Q9.13 8.88 8.60 10.69L8.60 10.69L7.65 10.69L6.76 7.82Q6.29 6.46 5.89 4.94L5.89 4.94L4.15 10.69L3.19 10.69L0.80 3.77L0.17 3.62L0.17 3.28L1.47 3.31L2.76 3.28L2.76 3.62L2.09 3.77L3.88 9.75Q4.37 7.90 4.42 7.74L4.42 7.74Q4.67 6.92 4.79 6.52L4.79 6.52Q5.27 4.87 5.65 3.29L5.65 3.29ZM17.21 8.52L17.57 8.81Q17.19 9.56 16.30 10.16L16.30 10.16Q15.83 10.45 15.38 10.59Q14.93 10.74 14.41 10.74L14.41 10.74Q12.84 10.74 11.97 9.78Q11.09 8.83 11.09 7.11L11.09 7.11Q11.09 5.46 12.13 4.28Q13.17 3.11 14.64 3.11L14.64 3.11Q15.93 3.11 16.63 3.81L16.63 3.81Q17.36 4.48 17.36 5.71L17.36 5.71L17.41 6.23L12.22 6.23L12.21 6.47L12.21 7.01Q12.21 8.30 12.88 9.09Q13.55 9.88 14.69 9.88L14.69 9.88Q15.14 9.88 15.53 9.77Q15.91 9.66 16.25 9.43Q16.60 9.20 16.84 8.96Q17.07 8.72 17.21 8.52L17.21 8.52ZM12.30 5.64L12.30 5.64L15.57 5.58L16.23 5.53Q16.23 4.62 15.82 4.16Q15.42 3.69 14.63 3.69L14.63 3.69Q13.58 3.69 12.88 4.48L12.88 4.48Q12.51 4.90 12.30 5.64ZM23.83 8.86L23.83 8.86L24.15 9.15Q23.79 9.64 23.04 10.19Q22.28 10.74 21.30 10.74L21.30 10.74Q19.83 10.74 18.91 9.78Q17.99 8.83 17.99 7.23L17.99 7.23Q17.99 5.50 19.15 4.31Q20.30 3.11 22.01 3.11L22.01 3.11Q22.76 3.11 23.29 3.30L23.29 3.30L23.83 3.47L23.37 5.03L23.01 4.96L23.01 4.25Q22.91 4.17 22.46 3.97Q22.01 3.77 21.49 3.77L21.49 3.77Q20.39 3.77 19.75 4.60Q19.12 5.43 19.12 6.85L19.12 6.85Q19.12 8.28 19.81 9.08Q20.49 9.88 21.73 9.88L21.73 9.88Q22.50 9.88 23.06 9.50L23.06 9.50Q23.32 9.32 23.51 9.16Q23.71 9.00 23.83 8.86ZM29.60 6.64L29.60 6.64L28.91 6.61Q28.24 6.61 27.66 6.79Q27.08 6.96 26.65 7.24L26.65 7.24Q26.26 7.53 26.06 7.87Q25.86 8.21 25.86 8.65L25.86 8.65Q25.86 9.13 26.19 9.51L26.19 9.51Q26.56 9.88 27.14 9.88L27.14 9.88Q28.27 9.88 28.91 9.00L28.91 9.00Q29.23 8.54 29.41 7.95Q29.60 7.35 29.60 6.64ZM29.58 8.79L29.58 8.79Q28.95 10.00 28.25 10.37Q27.55 10.74 26.90 10.74L26.90 10.74Q25.93 10.74 25.33 10.15Q24.72 9.57 24.72 8.78L24.72 8.78Q24.72 7.64 25.93 6.84Q27.13 6.04 29.02 6.04L29.02 6.04L29.66 6.04L29.66 5.58Q29.66 4.60 29.25 4.19L29.25 4.19Q28.86 3.77 28.02 3.77L28.02 3.77Q27.36 3.77 26.75 3.99L26.75 3.99L26.12 4.24L26.15 4.98L25.87 5.08L25.25 3.67Q25.55 3.54 26.24 3.32Q26.93 3.11 28.19 3.11L28.19 3.11Q29.23 3.11 29.90 3.61Q30.57 4.11 30.57 4.96L30.57 4.96L30.57 8.22Q30.57 9.01 30.65 9.44L30.65 9.44Q30.72 9.70 30.79 9.85L30.79 9.85Q30.82 9.94 30.94 10.06L30.94 10.06L31.49 10.22L31.49 10.58L30.76 10.56L30.36 10.54Q30.24 10.54 30.13 10.54Q30.01 10.54 29.86 10.57L29.86 10.57Q29.74 10.57 29.67 10.04L29.67 10.04Q29.64 9.78 29.63 9.64L29.63 9.64Q29.58 9.11 29.58 8.79ZM33.96 6.97L33.96 7.82L34.03 10.07L34.99 10.22L34.99 10.57L33.43 10.53L32.05 10.57L32.05 10.22L32.87 10.07L32.91 7.83L32.91 6.29L32.85 3.93L31.94 3.78L31.94 3.43Q32.21 3.43 32.35 3.41Q32.50 3.40 32.86 3.32Q33.21 3.25 33.68 3.11L33.68 3.11L33.96 3.11L33.85 5.29Q34.33 4.21 34.90 3.65L34.90 3.65Q35.16 3.38 35.46 3.25Q35.77 3.11 36.10 3.11L36.10 3.11Q36.23 3.11 36.36 3.13Q36.50 3.16 36.63 3.20Q36.77 3.24 36.88 3.32L36.88 3.32Q36.61 3.81 36.42 4.25L36.42 4.25Q36.39 4.34 36.30 4.57Q36.22 4.80 36.19 4.91L36.19 4.91Q35.95 4.86 35.90 4.79L35.90 4.79Q35.90 4.69 35.92 4.66L35.92 4.66Q35.92 4.15 35.83 4.10Q35.73 4.06 35.61 4.06L35.61 4.06Q34.96 4.13 34.47 4.96L34.47 4.96Q34.24 5.39 34.10 5.90Q33.96 6.41 33.96 6.97L33.96 6.97ZM42.42 8.52L42.79 8.81Q42.41 9.56 41.51 10.16L41.51 10.16Q41.05 10.45 40.59 10.59Q40.14 10.74 39.62 10.74L39.62 10.74Q38.06 10.74 37.18 9.78Q36.30 8.83 36.30 7.11L36.30 7.11Q36.30 5.46 37.34 4.28Q38.38 3.11 39.86 3.11L39.86 3.11Q41.14 3.11 41.85 3.81L41.85 3.81Q42.57 4.48 42.57 5.71L42.57 5.71L42.62 6.23L37.44 6.23L37.42 6.47L37.42 7.01Q37.42 8.30 38.09 9.09Q38.76 9.88 39.90 9.88L39.90 9.88Q40.36 9.88 40.74 9.77Q41.12 9.66 41.46 9.43Q41.81 9.20 42.05 8.96Q42.29 8.72 42.42 8.52L42.42 8.52ZM37.51 5.64L37.51 5.64L40.78 5.58L41.44 5.53Q41.44 4.62 41.03 4.16Q40.63 3.69 39.84 3.69L39.84 3.69Q38.79 3.69 38.09 4.48L38.09 4.48Q37.72 4.90 37.51 5.64ZM50.27 5.33L50.27 7.82L50.34 10.07L51.17 10.22L51.17 10.57L49.73 10.53L49.18 10.57L49.18 10.22L49.21 10.07L49.21 6.04Q49.21 4.98 48.83 4.47Q48.45 3.97 47.58 3.97L47.58 3.97Q46.66 3.97 46.13 4.71Q45.60 5.46 45.60 6.68L45.60 6.68L45.60 7.82L45.65 10.07L46.46 10.22L46.46 10.57L45.07 10.53L43.68 10.57L43.68 10.22L44.50 10.07L44.55 7.83L44.55 3.31L44.48 0.95L43.57 0.81L43.57 0.45L44.47 0.32Q44.79 0.26 45.36 0.10L45.36 0.10L45.62 0.10L45.60 2.01L45.60 4.42Q46.06 3.85 46.73 3.48Q47.40 3.11 48.11 3.11L48.11 3.11Q49.07 3.11 49.67 3.72Q50.27 4.33 50.27 5.33L50.27 5.33ZM56.92 8.52L57.29 8.81Q56.91 9.56 56.01 10.16L56.01 10.16Q55.55 10.45 55.09 10.59Q54.64 10.74 54.12 10.74L54.12 10.74Q52.56 10.74 51.68 9.78Q50.81 8.83 50.81 7.11L50.81 7.11Q50.81 5.46 51.84 4.28Q52.88 3.11 54.36 3.11L54.36 3.11Q55.64 3.11 56.35 3.81L56.35 3.81Q57.07 4.48 57.07 5.71L57.07 5.71L57.12 6.23L51.94 6.23L51.93 6.47L51.93 7.01Q51.93 8.30 52.59 9.09Q53.26 9.88 54.40 9.88L54.40 9.88Q54.86 9.88 55.24 9.77Q55.62 9.66 55.96 9.43Q56.31 9.20 56.55 8.96Q56.79 8.72 56.92 8.52L56.92 8.52ZM52.01 5.64L52.01 5.64L55.29 5.58L55.94 5.53Q55.94 4.62 55.54 4.16Q55.13 3.69 54.34 3.69L54.34 3.69Q53.30 3.69 52.59 4.48L52.59 4.48Q52.22 4.90 52.01 5.64ZM62.71 6.64L62.71 6.64L62.02 6.61Q61.35 6.61 60.77 6.79Q60.19 6.96 59.77 7.24L59.77 7.24Q59.37 7.53 59.17 7.87Q58.97 8.21 58.97 8.65L58.97 8.65Q58.97 9.13 59.30 9.51L59.30 9.51Q59.67 9.88 60.25 9.88L60.25 9.88Q61.39 9.88 62.02 9.00L62.02 9.00Q62.34 8.54 62.52 7.95Q62.71 7.35 62.71 6.64ZM62.70 8.79L62.70 8.79Q62.06 10.00 61.36 10.37Q60.66 10.74 60.02 10.74L60.02 10.74Q59.04 10.74 58.44 10.15Q57.83 9.57 57.83 8.78L57.83 8.78Q57.83 7.64 59.04 6.84Q60.24 6.04 62.14 6.04L62.14 6.04L62.77 6.04L62.77 5.58Q62.77 4.60 62.36 4.19L62.36 4.19Q61.97 3.77 61.14 3.77L61.14 3.77Q60.47 3.77 59.86 3.99L59.86 3.99L59.23 4.24L59.26 4.98L58.98 5.08L58.36 3.67Q58.66 3.54 59.35 3.32Q60.04 3.11 61.30 3.11L61.30 3.11Q62.34 3.11 63.01 3.61Q63.69 4.11 63.69 4.96L63.69 4.96L63.69 8.22Q63.69 9.01 63.76 9.44L63.76 9.44Q63.83 9.70 63.90 9.85L63.90 9.85Q63.94 9.94 64.05 10.06L64.05 10.06L64.60 10.22L64.60 10.58L63.88 10.56L63.47 10.54Q63.35 10.54 63.24 10.54Q63.13 10.54 62.97 10.57L62.97 10.57Q62.85 10.57 62.78 10.04L62.78 10.04Q62.76 9.78 62.74 9.64L62.74 9.64Q62.70 9.11 62.70 8.79ZM65.95 0.95L65.06 0.81L65.06 0.45L65.94 0.32Q66.26 0.26 66.83 0.10L66.83 0.10L67.09 0.10L67.07 2.01L67.07 7.82L67.12 10.07L67.90 10.22L67.90 10.57L66.54 10.53L65.15 10.57L65.15 10.22L65.98 10.07L66.02 7.83L66.02 3.31L65.95 0.95ZM69.46 3.88L69.46 7.92Q69.46 8.96 69.66 9.42Q69.86 9.88 70.33 9.88L70.33 9.88Q70.67 9.88 70.93 9.71Q71.19 9.54 71.38 9.37L71.38 9.37L71.63 9.62Q71.51 9.82 71.30 10.04L71.30 10.04Q71.17 10.19 70.99 10.35L70.99 10.35Q70.57 10.74 69.88 10.74L69.88 10.74Q69.21 10.74 68.81 10.28Q68.42 9.83 68.42 9.02L68.42 9.02L68.42 3.88L67.58 3.94L67.58 3.54L68.42 3.30L68.34 1.60L69.52 1.27L69.46 3.31L71.25 3.29L70.99 3.91L69.46 3.88ZM78.81 5.33L78.81 7.82L78.88 10.07L79.71 10.22L79.71 10.57L78.27 10.53L77.72 10.57L77.72 10.22L77.74 10.07L77.74 6.04Q77.74 4.98 77.36 4.47Q76.98 3.97 76.11 3.97L76.11 3.97Q75.19 3.97 74.66 4.71Q74.13 5.46 74.13 6.68L74.13 6.68L74.13 7.82L74.18 10.07L74.99 10.22L74.99 10.57L73.61 10.53L72.22 10.57L72.22 10.22L73.04 10.07L73.09 7.83L73.09 3.31L73.01 0.95L72.11 0.81L72.11 0.45L73.00 0.32Q73.32 0.26 73.90 0.10L73.90 0.10L74.16 0.10L74.13 2.01L74.13 4.42Q74.60 3.85 75.27 3.48Q75.93 3.11 76.65 3.11L76.65 3.11Q77.60 3.11 78.20 3.72Q78.81 4.33 78.81 5.33L78.81 5.33Z"></path></g><!----><g data-v-423bf9ae="" id="9bf7a3e2-502f-45b3-8056-4d0e74cb409e" transform="matrix(1.0180994420703757,0,0,1.0180994420703757,-6.057684689584647,-6.114026471234588)" stroke="none" fill="white"><path d="M62 94.7H38.3c-1.9 0-3.5-1.6-3.5-3.5l-.2-25.3H9.5c-1.9 0-3.5-1.6-3.5-3.5V38.6c0-1.9 1.6-3.5 3.5-3.5h25l.3-25.3c0-1.9 1.6-3.5 3.5-3.5H62c1.9 0 3.5 1.6 3.5 3.5S64 13.3 62 13.3H41.7l-.3 25.3c0 1.9-1.6 3.5-3.5 3.5H13v16.8h25.1c1.9 0 3.5 1.6 3.5 3.5l.2 25.3h16.8l.2-25.3c0-1.9 1.6-3.5 3.5-3.5h25.1V42.1H62.3c-1.9 0-3.5-1.5-3.5-3.5l-.2-14.4c0-1.9 1.5-3.5 3.5-3.5 1.9 0 3.5 1.5 3.5 3.5l.1 11h25.1c1.9 0 3.5 1.6 3.5 3.5v23.8c0 1.9-1.6 3.5-3.5 3.5H65.7l-.2 25.3c0 1.8-1.5 3.4-3.5 3.4z"></path></g><!----></svg>